<svg width="8" height="16" viewBox="0 0 8 16" fill="none" xmlns="http://www.w3.org/2000/svg">
<path d="M1.0315 15.8103L7.8142 8.48246C7.93333 8.35375 8 8.18112 8 8.00138C8 7.82164 7.93333 7.64901 7.8142 7.5203L1.0315 0.189661C0.976004 0.129638 0.909657 0.0819311 0.83637 0.0493565C0.763083 0.0167818 0.684343 0 0.604796 0C0.52525 0 0.446508 0.0167818 0.373222 0.0493565C0.299935 0.0819311 0.233588 0.129638 0.178096 0.189661C0.063921 0.312749 0 0.477994 0 0.650066C0 0.822139 0.063921 0.987383 0.178096 1.11047L6.55635 8.00138L0.178096 14.8909C0.0643129 15.0139 0.000639439 15.1789 0.000639439 15.3506C0.000639439 15.5224 0.0643129 15.6873 0.178096 15.8103C0.233588 15.8704 0.299935 15.9181 0.373222 15.9506C0.446508 15.9832 0.52525 16 0.604796 16C0.684343 16 0.763083 15.9832 0.83637 15.9506C0.909657 15.9181 0.976004 15.8704 1.0315 15.8103Z" fill="url(#paint0_linear_317_233)"/>
<defs>
<linearGradient id="paint0_linear_317_233" x1="10.4375" y1="12.25" x2="-3.83049" y2="9.56183" gradientUnits="userSpaceOnUse">
<stop stop-color="#00000"/>
<stop offset="1" stop-color="#00000"/>
</linearGradient>
</defs>
</svg>
