<svg width="8" height="16" viewBox="0 0 8 16" fill="none" xmlns="http://www.w3.org/2000/svg">
<path d="M6.9685 0.189662L0.185799 7.51754C0.0666716 7.64625 0 7.81888 0 7.99862C0 8.17836 0.0666716 8.35099 0.185799 8.4797L6.9685 15.8103C7.024 15.8704 7.09034 15.9181 7.16363 15.9506C7.23692 15.9832 7.31566 16 7.3952 16C7.47475 16 7.55349 15.9832 7.62678 15.9506C7.70007 15.9181 7.76641 15.8704 7.8219 15.8103C7.93608 15.6873 8 15.522 8 15.3499C8 15.1779 7.93608 15.0126 7.8219 14.8895L1.44365 7.99862L7.8219 1.10909C7.93569 0.986068 7.99936 0.821117 7.99936 0.649378C7.99936 0.477638 7.93569 0.312687 7.8219 0.189662C7.76641 0.129639 7.70007 0.0819325 7.62678 0.0493576C7.55349 0.0167827 7.47475 0 7.3952 0C7.31566 0 7.23692 0.0167827 7.16363 0.0493576C7.09034 0.0819325 7.024 0.129639 6.9685 0.189662Z" fill="url(#paint0_linear_317_29)"/>
<defs>
<linearGradient id="paint0_linear_317_29" x1="-2.4375" y1="3.75" x2="11.8305" y2="6.43817" gradientUnits="userSpaceOnUse">
<stop stop-color="#8136EB"/>
<stop offset="1" stop-color="#F76FED"/>
</linearGradient>
</defs>
</svg>
