<svg width="12" height="12" viewBox="0 0 12 12" fill="none" xmlns="http://www.w3.org/2000/svg">
<path d="M2.49869 11.9853L11.9691 11.9607L11.9937 2.49693C12.0071 2.39833 11.9991 2.29802 11.9703 2.20278C11.9415 2.10753 11.8925 2.01959 11.8267 1.9449C11.7609 1.8702 11.6799 1.81051 11.589 1.76985C11.4981 1.72919 11.3996 1.70851 11.3 1.70922C11.2004 1.70993 11.1022 1.73201 11.0119 1.77397C10.9216 1.81592 10.8414 1.87677 10.7767 1.95239C10.712 2.02802 10.6643 2.11665 10.6369 2.21229C10.6094 2.30794 10.6029 2.40836 10.6176 2.50675L10.5881 9.59845L1.18649 0.203426C1.05615 0.0731744 0.879365 -8.23454e-09 0.695031 0C0.510698 8.23455e-09 0.333913 0.0731744 0.20357 0.203426C0.073226 0.333678 8.24035e-09 0.510338 0 0.694542C-8.24035e-09 0.878745 0.0732263 1.0554 0.20357 1.18566L9.60522 10.5807L2.50852 10.6101C2.32408 10.6108 2.14746 10.6846 2.01751 10.8154C1.88755 10.9462 1.81491 11.1232 1.81556 11.3075C1.81621 11.4918 1.8901 11.6683 2.02098 11.7982C2.15186 11.9281 2.329 12.0006 2.51344 12L2.49869 11.9853Z" fill="#F2F2F2"/>
</svg>
