<svg width="938" height="1117" viewBox="0 0 938 1117" fill="none" xmlns="http://www.w3.org/2000/svg">
<g filter="url(#filter0_f_168_8039)">
<path fill-rule="evenodd" clip-rule="evenodd" d="M24.349 219.002C95.3256 225.23 171.097 193.985 229.33 235.096C295.028 281.477 340.204 359.908 337.917 440.373C335.672 519.381 276.894 581.684 217.986 634.288C163.191 683.219 97.4911 726.721 24.349 720.384C-44.8248 714.39 -96.7191 658.978 -138.449 603.405C-173.765 556.373 -174.368 498.073 -185.909 440.373C-202.7 356.425 -278.921 257.707 -220 195.672C-161.379 133.953 -60.3826 211.568 24.349 219.002Z" fill="url(#paint0_linear_168_8039)"/>
</g>
<defs>
<filter id="filter0_f_168_8039" x="-842" y="-428" width="1780" height="1749" filterUnits="userSpaceOnUse" color-interpolation-filters="sRGB">
<feFlood flood-opacity="0" result="BackgroundImageFix"/>
<feBlend mode="normal" in="SourceGraphic" in2="BackgroundImageFix" result="shape"/>
<feGaussianBlur stdDeviation="300" result="effect1_foregroundBlur_168_8039"/>
</filter>
<linearGradient id="paint0_linear_168_8039" x1="-418.719" y1="300.672" x2="505.901" y2="668.752" gradientUnits="userSpaceOnUse">
<stop stop-color="#8136EB"/>
<stop offset="1" stop-color="#F76FED"/>
</linearGradient>
</defs>
</svg>
