<svg width="28" height="27" viewBox="0 0 28 27" fill="none" xmlns="http://www.w3.org/2000/svg">
<path d="M13.8331 22.3082L6.65254 26.8621C6.44155 26.9715 6.24571 27.0158 6.06504 26.995C5.8857 26.9729 5.71096 26.9078 5.54085 26.7997C5.36941 26.6889 5.24017 26.5324 5.15314 26.3302C5.0661 26.128 5.05819 25.9071 5.1294 25.6675L7.04025 17.129L0.720189 11.3743C0.542159 11.222 0.424791 11.0398 0.368085 10.8279C0.31138 10.616 0.323908 10.4131 0.40567 10.2192C0.487432 10.0253 0.596228 9.86605 0.732058 9.7414C0.869207 9.6209 1.05383 9.53919 1.28593 9.49625L9.62564 8.73173L12.8777 0.646103C12.9673 0.417578 13.0966 0.252762 13.2654 0.151657C13.4342 0.0505524 13.6234 0 13.8331 0C14.0428 0 14.2327 0.0505524 14.4028 0.151657C14.5729 0.252762 14.7015 0.417578 14.7885 0.646103L18.0405 8.73173L26.3783 9.49625C26.6117 9.5378 26.797 9.62021 26.9341 9.74347C27.0713 9.86535 27.1807 10.0239 27.2625 10.2192C27.3429 10.4131 27.3548 10.616 27.2981 10.8279C27.2414 11.0398 27.124 11.222 26.946 11.3743L20.6259 17.129L22.5368 25.6675C22.6106 25.9043 22.6034 26.1246 22.515 26.3281C22.4267 26.5317 22.2968 26.6882 22.1253 26.7977C21.9565 26.9085 21.7818 26.9743 21.6011 26.995C21.4218 27.0158 21.2266 26.9715 21.0156 26.8621L13.8331 22.3082Z" fill="url(#paint0_linear_317_22)"/>
<defs>
<linearGradient id="paint0_linear_317_22" x1="-7.89331" y1="6.32813" x2="35.7707" y2="22.7812" gradientUnits="userSpaceOnUse">
<stop stop-color="#8136EB"/>
<stop offset="1" stop-color="#F76FED"/>
</linearGradient>
</defs>
</svg>
