<svg width="124" height="124" viewBox="0 0 124 124" fill="none" xmlns="http://www.w3.org/2000/svg">
<path d="M33.9611 74.5026L62.4443 46.0195M49.4974 90.0389L62.4443 77.092M5.03254 62.0011L61.9989 5.03475C63.9408 3.09221 66.5749 2.00059 69.3217 2H111.642C114.389 2 117.024 3.09123 118.966 5.03365C120.909 6.97606 122 9.61053 122 12.3575V54.6783C121.999 57.4251 120.908 60.0591 118.965 62.0011L61.9989 118.967C60.0566 120.909 57.4226 122 54.6761 122C51.9297 122 49.2957 120.909 47.3534 118.967L5.03254 76.6466C3.09081 74.7043 2 72.0703 2 69.3239C2 66.5774 3.09081 63.9434 5.03254 62.0011Z" stroke="url(#paint0_linear_296_282)" stroke-width="3" stroke-linecap="round" stroke-linejoin="round"/>
<path d="M101.285 27.8938C101.285 29.2673 100.74 30.5846 99.7684 31.5558C98.7972 32.527 97.48 33.0726 96.1065 33.0726C94.733 33.0726 93.4158 32.527 92.4446 31.5558C91.4733 30.5846 90.9277 29.2673 90.9277 27.8938C90.9277 26.5204 91.4733 25.2031 92.4446 24.2319C93.4158 23.2607 94.733 22.7151 96.1065 22.7151C97.48 22.7151 98.7972 23.2607 99.7684 24.2319C100.74 25.2031 101.285 26.5204 101.285 27.8938Z" fill="url(#paint1_linear_296_282)"/>
<mask id="mask0_296_282" style="mask-type:alpha" maskUnits="userSpaceOnUse" x="0" y="0" width="124" height="124">
<path d="M33.9611 74.5026L62.4443 46.0195M49.4974 90.0389L62.4443 77.092M5.03254 62.0011L61.9989 5.03475C63.9408 3.09221 66.5749 2.00059 69.3217 2H111.642C114.389 2 117.024 3.09123 118.966 5.03365C120.909 6.97606 122 9.61053 122 12.3575V54.6783C121.999 57.4251 120.908 60.0591 118.965 62.0011L61.9989 118.967C60.0566 120.909 57.4226 122 54.6761 122C51.9297 122 49.2957 120.909 47.3534 118.967L5.03254 76.6466C3.09081 74.7043 2 72.0703 2 69.3239C2 66.5774 3.09081 63.9434 5.03254 62.0011Z" stroke="#280E4A" stroke-width="3" stroke-linecap="round" stroke-linejoin="round"/>
<path d="M96.1064 23.4651C97.2076 23.4651 98.2667 23.875 99.0791 24.6106L99.2383 24.762C100.069 25.5925 100.535 26.7192 100.535 27.8938C100.535 28.995 100.125 30.054 99.3896 30.8665L99.2383 31.0256C98.4077 31.8562 97.281 32.3225 96.1064 32.3225C95.0053 32.3225 93.9462 31.9126 93.1338 31.177L92.9746 31.0256C92.1441 30.1951 91.6777 29.0684 91.6777 27.8938C91.6777 26.7926 92.0876 25.7335 92.8232 24.9211L92.9746 24.762C93.8052 23.9314 94.9319 23.4651 96.1064 23.4651Z" fill="black" stroke="#280E4A" stroke-width="1.5"/>
</mask>
<g mask="url(#mask0_296_282)">
<g filter="url(#filter0_f_296_282)">
<rect x="-39.3511" y="42" width="270" height="120.301" transform="rotate(7.4742 -39.3511 42)" fill="#280E4A"/>
</g>
</g>
<defs>
<filter id="filter0_f_296_282" x="-105" y="-8" width="383.355" height="254.4" filterUnits="userSpaceOnUse" color-interpolation-filters="sRGB">
<feFlood flood-opacity="0" result="BackgroundImageFix"/>
<feBlend mode="normal" in="SourceGraphic" in2="BackgroundImageFix" result="shape"/>
<feGaussianBlur stdDeviation="25" result="effect1_foregroundBlur_296_282"/>
</filter>
<linearGradient id="paint0_linear_296_282" x1="-34.5625" y1="30.125" x2="159.5" y2="103.25" gradientUnits="userSpaceOnUse">
<stop stop-color="#8136EB"/>
<stop offset="1" stop-color="#F76FED"/>
</linearGradient>
<linearGradient id="paint1_linear_296_282" x1="87.7719" y1="25.1426" x2="104.522" y2="31.4542" gradientUnits="userSpaceOnUse">
<stop stop-color="#8136EB"/>
<stop offset="1" stop-color="#F76FED"/>
</linearGradient>
</defs>
</svg>
