<svg width="108" height="108" viewBox="0 0 108 108" fill="none" xmlns="http://www.w3.org/2000/svg">
<path d="M29.9996 64.5L54.7496 39.75M43.4996 78L54.7496 66.75M4.86262 53.637L54.3626 4.137C56.05 2.44906 58.3389 1.50051 60.7256 1.5H97.4996C99.8866 1.5 102.176 2.44821 103.864 4.13604C105.551 5.82387 106.5 8.11305 106.5 10.5V47.274C106.499 49.6608 105.551 51.9496 103.863 53.637L54.3626 103.137C52.6749 104.824 50.3861 105.772 47.9996 105.772C45.6131 105.772 43.3244 104.824 41.6366 103.137L4.86262 66.363C3.17538 64.6752 2.22754 62.3865 2.22754 60C2.22754 57.6135 3.17538 55.3248 4.86262 53.637Z" stroke="url(#paint0_linear_128_163)" stroke-width="3" stroke-linecap="round" stroke-linejoin="round"/>
<path d="M88.5 24C88.5 25.1935 88.0259 26.3381 87.182 27.182C86.3381 28.0259 85.1935 28.5 84 28.5C82.8065 28.5 81.6619 28.0259 80.818 27.182C79.9741 26.3381 79.5 25.1935 79.5 24C79.5 22.8065 79.9741 21.6619 80.818 20.818C81.6619 19.9741 82.8065 19.5 84 19.5C85.1935 19.5 86.3381 19.9741 87.182 20.818C88.0259 21.6619 88.5 22.8065 88.5 24Z" fill="url(#paint1_linear_128_163)"/>
<defs>
<linearGradient id="paint0_linear_128_163" x1="-29.5429" y1="25.9388" x2="139.085" y2="89.4796" gradientUnits="userSpaceOnUse">
<stop stop-color="#8136EB"/>
<stop offset="1" stop-color="#F76FED"/>
</linearGradient>
<linearGradient id="paint1_linear_128_163" x1="76.7578" y1="21.6094" x2="91.3125" y2="27.0937" gradientUnits="userSpaceOnUse">
<stop stop-color="#8136EB"/>
<stop offset="1" stop-color="#F76FED"/>
</linearGradient>
</defs>
</svg>
